<svg version="1.1" viewBox="0.0 0.0 960.0 720.0" fill="none" stroke="none" stroke-linecap="square" stroke-miterlimit="10" xmlns:xlink="http://www.w3.org/1999/xlink" xmlns="http://www.w3.org/2000/svg"><clipPath id="p.0"><path d="m0 0l960.0 0l0 720.0l-960.0 0l0 -720.0z" clip-rule="nonzero"/></clipPath><g clip-path="url(#p.0)"><path fill="#000000" fill-opacity="0.0" d="m0 0l960.0 0l0 720.0l-960.0 0z" fill-rule="evenodd"/><path fill="#cfe2f3" d="m418.85062 584.25146l150.77164 0l0 11.433044l-150.77164 0z" fill-rule="evenodd"/><path fill="#ffffff" d="m430.5381 440.54904l127.40155 0l0 155.11807l-127.40155 0z" fill-rule="evenodd"/><path fill="#3d85c6" d="m467.0641 434.63287l0 0c0 -5.3394165 4.3284607 -9.667877 9.667908 -9.667877l34.994934 0l0 0c2.564087 0 5.0231323 1.0185852 6.8362427 2.831665c1.8130493 1.8130798 2.831665 4.272156 2.831665 6.836212l0 4.065796c0 5.339447 -4.328491 9.667908 -9.667908 9.667908l-34.994934 0c-5.339447 0 -9.667908 -4.3284607 -9.667908 -9.667908z" fill-rule="evenodd"/><path fill="#9fc5e8" d="m418.8504 436.93713l0 0c0 -6.6115723 5.3597107 -11.971283 11.971252 -11.971283l126.8291 0c3.1749878 0 6.2199097 1.261261 8.464966 3.5063171c2.2450562 2.2450256 3.5063477 5.289978 3.5063477 8.464966l0 239.89996c0 6.6115723 -5.359741 11.971252 -11.971313 11.971252l-126.8291 0c-6.6115417 0 -11.971252 -5.35968 -11.971252 -11.971252z" fill-rule="evenodd"/><path fill="#ffffff" d="m430.5381 440.54904l127.40155 0l0 155.11807l-127.40155 0z" fill-rule="evenodd"/><path fill="#9fc5e8" d="m467.0641 434.63287l0 0c0 -5.3394165 4.3284607 -9.667877 9.667908 -9.667877l34.994934 0l0 0c2.564087 0 5.0231323 1.0185852 6.8362427 2.831665c1.8130493 1.8130798 2.831665 4.272156 2.831665 6.836212l0 4.065796c0 5.339447 -4.328491 9.667908 -9.667908 9.667908l-34.994934 0c-5.339447 0 -9.667908 -4.3284607 -9.667908 -9.667908z" fill-rule="evenodd"/><path fill="#000000" fill-opacity="0.0" d="m743.22797 139.40097c0 71.390854 -62.251953 107.08484 -124.50397 142.78171c-62.251953 35.69684 -124.50391 71.396545 -124.50391 142.79309" fill-rule="evenodd"/><path stroke="#a64d79" stroke-width="2.0" stroke-linejoin="round" stroke-linecap="butt" d="m742.9881 146.97717l-0.041381836 0.6286316c-0.03729248 0.53637695 -0.078186035 1.0706635 -0.1227417 1.6028748c-0.08905029 1.0644226 -0.19256592 2.1205292 -0.31036377 3.168457c-0.47113037 4.1917725 -1.1702881 8.252808 -2.0821533 12.1918335c-1.8237915 7.878067 -4.4987183 15.268082 -7.903076 22.239777c-6.808838 13.943405 -16.535706 26.213577 -28.207947 37.368317c-23.344482 22.309464 -54.47046 40.157166 -85.596436 58.005585c-62.251953 35.69687 -124.50394 71.396576 -124.50394 142.79312" fill-rule="evenodd"/><path fill="#a64d79" stroke="#a64d79" stroke-width="2.0" stroke-linecap="butt" d="m743.1963 140.40047c1.8161011 0.057495117 3.2417603 1.5763397 3.1842651 3.3924408c-0.057495117 1.8161163 -1.576355 3.2417603 -3.392456 3.1842651c-1.8161011 -0.05747986 -3.2417603 -1.5763397 -3.1842651 -3.3924408c0.057495117 -1.8161011 1.576355 -3.241745 3.392456 -3.1842651z" fill-rule="nonzero"/><path fill="#000000" fill-opacity="0.0" d="m349.0326 170.35081c0 63.65355 36.299225 95.48033 72.59845 127.30708c36.299194 31.826782 72.59842 63.653564 72.59842 127.3071" fill-rule="evenodd"/><path stroke="#a64d79" stroke-width="1.0" stroke-linejoin="round" stroke-linecap="butt" d="m349.07773 174.14056l0.014221191 0.63386536c0.013153076 0.48576355 0.028442383 0.96965027 0.045898438 1.4516449c0.0697937 1.9279785 0.17391968 3.8258514 0.31124878 5.6945953c0.27474976 3.7374725 0.6824341 7.358383 1.2141113 10.870499c1.0635071 7.024292 2.6231995 13.613419 4.6083374 19.82959c3.9702148 12.432327 9.641968 23.372787 16.44806 33.31865c13.612213 19.891739 31.76181 35.80513 49.911438 51.71849c36.299194 31.826782 72.59842 63.653534 72.59842 127.30707" fill-rule="evenodd"/><path fill="#a64d79" stroke="#a64d79" stroke-width="1.0" stroke-linecap="butt" d="m349.03854 170.85078c0.90844727 -0.010803223 1.653656 0.71687317 1.6644592 1.6253204c0.010803223 0.908432 -0.7168579 1.6536407 -1.6253052 1.664444c-0.90844727 0.010818481 -1.653656 -0.7168579 -1.6644592 -1.6253052c-0.010803223 -0.90844727 0.7168579 -1.6536407 1.6253052 -1.6644592z" fill-rule="nonzero"/><path fill="#000000" fill-opacity="0.0" d="m626.07196 119.01224c0 76.48819 -32.960632 114.732285 -65.921265 152.97638c-32.960632 38.24408 -65.921234 76.48819 -65.921234 152.97638" fill-rule="evenodd"/><path stroke="#a64d79" stroke-width="3.0" stroke-linejoin="round" stroke-linecap="butt" d="m625.8196 130.37944l-0.037963867 0.8447571c-0.027404785 0.56578064 -0.05670166 1.129364 -0.08782959 1.6907501c-0.24945068 4.4910583 -0.6196289 8.842072 -1.102478 13.062378c-0.9656372 8.440582 -2.381897 16.358307 -4.1844482 23.82785c-3.6050415 14.939102 -8.755188 28.08551 -14.935303 40.03679c-12.3602295 23.902557 -28.840515 43.024612 -45.32086 62.146652c-32.960632 38.24411 -65.921234 76.48816 -65.921234 152.97635" fill-rule="evenodd"/><path fill="#a64d79" stroke="#a64d79" stroke-width="3.0" stroke-linecap="butt" d="m626.0387 120.51187c2.7248535 0.060508728 4.8847046 2.3184967 4.8242188 5.04335c-0.060546875 2.7248535 -2.3185425 4.884735 -5.043396 4.8242188c-2.7248535 -0.060516357 -4.8847046 -2.3184967 -4.8242188 -5.04335c0.060546875 -2.7248535 2.3185425 -4.8847275 5.043396 -4.8242188z" fill-rule="nonzero"/><path fill="#000000" fill-opacity="0.0" d="m878.29407 90.31764c0 83.663086 -96.01575 125.49547 -192.0315 167.32619c-96.01575 41.83069 -192.0315 83.65973 -192.0315 167.31949" fill-rule="evenodd"/><path stroke="#a64d79" stroke-width="1.0" stroke-linejoin="round" stroke-linecap="butt" d="m878.2273 94.10705l-0.0032348633 0.1018219c-0.04650879 1.2869644 -0.1161499 2.563881 -0.20837402 3.8309097c-0.18457031 2.53405 -0.460083 5.0285263 -0.82336426 7.4846954c-0.7266846 4.912346 -1.8049927 9.671516 -3.2114868 14.287704c-2.8129272 9.232361 -6.9385986 17.892838 -12.189514 26.063095c-10.501709 16.340515 -25.50415 30.720184 -43.50714 43.792603c-36.00586 26.144821 -84.01373 47.060593 -132.0216 67.97595c-96.01575 41.83069 -192.0315 83.65973 -192.0315 167.31946" fill-rule="evenodd"/><path fill="#a64d79" stroke="#a64d79" stroke-width="1.0" stroke-linecap="butt" d="m878.2852 90.81756c0.90838623 0.01599884 1.6317749 0.7653427 1.6157837 1.6737137c-0.015991211 0.908371 -0.7653198 1.6317749 -1.673706 1.6157761c-0.90838623 -0.01599884 -1.6317749 -0.7653427 -1.6157837 -1.6737137c0.015991211 -0.90836334 0.76538086 -1.6317749 1.673706 -1.6157761z" fill-rule="nonzero"/><path fill="#000000" fill-opacity="0.0" d="m81.70636 161.1329c0 65.96196 103.133865 98.94357 206.26773 131.92389c103.13385 32.980316 206.2677 65.95932 206.2677 131.91864" fill-rule="evenodd"/><path stroke="#a64d79" stroke-width="2.0" stroke-linejoin="round" stroke-linecap="butt" d="m82.17054 168.69867l0.0017852783 0.015151978c0.0617218 0.4955902 0.12948608 0.98924255 0.2032547 1.4809723c0.14753723 0.98349 0.3190689 1.9592896 0.51420593 2.927536c0.7805481 3.8730164 1.938797 7.625244 3.4495468 11.2647705c3.0214996 7.279007 7.4530334 14.107132 13.093163 20.548752c11.280266 12.883255 27.394936 24.22052 46.73253 34.527115c38.6752 20.613174 90.24213 37.103683 141.80907 53.593826c103.13385 32.980316 206.2677 65.95932 206.2677 131.91864" fill-rule="evenodd"/><path fill="#a64d79" stroke="#a64d79" stroke-width="2.0" stroke-linecap="butt" d="m81.7676 162.13103c1.8136063 -0.11126709 3.3740234 1.268753 3.4852905 3.0823517c0.11127472 1.8136139 -1.2687454 3.3740387 -3.0823517 3.4853058c-1.8136063 0.11126709 -3.374031 -1.268753 -3.4852982 -3.082367c-0.11126709 -1.8135986 1.268753 -3.3740234 3.0823593 -3.4852905z" fill-rule="nonzero"/><path fill="#000000" fill-opacity="0.0" d="m238.69186 109.726814c0 78.8063 63.881897 118.20707 127.763794 157.61261c63.881866 39.405487 127.76376 78.815735 127.76376 157.6315" fill-rule="evenodd"/><path stroke="#a64d79" stroke-width="3.0" stroke-linejoin="round" stroke-linecap="butt" d="m239.1497 121.087585l0.027999878 0.34518433c0.02470398 0.29260254 0.050338745 0.58462524 0.07687378 0.876091c0.053100586 0.5829239 0.10987854 1.1635666 0.1703186 1.7419739c0.48345947 4.627144 1.2008972 9.110008 2.1366577 13.458183c1.8715515 8.696335 4.6164703 16.853928 8.110016 24.549774c6.987091 15.391663 16.968628 28.93628 28.946472 41.249603c23.955719 24.626678 55.896667 44.328247 87.837616 64.03102c63.881897 39.405487 127.763794 78.815735 127.763794 157.6315" fill-rule="evenodd"/><path fill="#a64d79" stroke="#a64d79" stroke-width="3.0" stroke-linecap="butt" d="m238.75227 111.22559c2.7233124 -0.10975647 5.0199585 2.008957 5.129715 4.7322693c0.10975647 2.72332 -2.008957 5.0199738 -4.7322693 5.1297226c-2.7233124 0.10974884 -5.0199738 -2.008957 -5.12973 -4.732277c-0.10974121 -2.7233124 2.0089722 -5.019966 4.7322845 -5.129715z" fill-rule="nonzero"/><path fill="#000000" fill-opacity="0.0" d="m447.80234 146.56636c0 69.60121 11.606293 104.40321 23.212585 139.20244c11.606293 34.799194 23.212616 69.59564 23.212616 139.19125" fill-rule="evenodd"/><path stroke="#a64d79" stroke-width="2.0" stroke-linejoin="round" stroke-linecap="butt" d="m447.8498 154.14621l0.0049743652 0.41932678c0.006958008 0.52293396 0.014587402 1.0438232 0.022857666 1.5626984c0.016601562 1.037735 0.03591919 2.0673676 0.057861328 3.0890503c0.08786011 4.0867004 0.2182312 8.045959 0.3882141 11.886276c0.34002686 7.680649 0.8387451 14.885513 1.4734497 21.68254c1.2694397 13.594101 3.0829468 25.556946 5.2591248 36.43222c4.352356 21.75055 10.155518 39.15085 15.958649 56.550446c11.606293 34.799225 23.212616 69.59564 23.212616 139.19128" fill-rule="evenodd"/><path fill="#a64d79" stroke="#a64d79" stroke-width="2.0" stroke-linecap="butt" d="m447.8086 147.56635c1.8169861 -0.011367798 3.2991333 1.4523621 3.3105164 3.2693481c0.011383057 1.8169861 -1.4523621 3.2991486 -3.2693481 3.3105164c-1.8169861 0.011383057 -3.2991638 -1.4523621 -3.3105164 -3.269333c-0.011383057 -1.8169861 1.4523621 -3.2991638 3.2693481 -3.3105316z" fill-rule="nonzero"/><path fill="#000000" fill-opacity="0.0" d="m836.322 12.309923l83.94409 0l0 78.00772l-83.94409 0z" fill-rule="evenodd"/><path fill="#000000" fill-opacity="0.0" d="m39.734314 83.12519l83.9441 0l0 78.00771l-83.9441 0z" fill-rule="evenodd"/><path fill="#000000" fill-opacity="0.0" d="m196.71982 31.719097l83.94409 0l0 78.00772l-83.94409 0z" fill-rule="evenodd"/><path fill="#000000" fill-opacity="0.0" d="m405.8303 68.55865l83.94409 0l0 78.00771l-83.94409 0z" fill-rule="evenodd"/><path fill="#000000" fill-opacity="0.0" d="m701.2559 61.393257l83.94409 0l0 78.00771l-83.94409 0z" fill-rule="evenodd"/><path fill="#000000" fill-opacity="0.0" d="m494.24173 448.35223l0 147.30713" fill-rule="evenodd"/><path stroke="#a64d79" stroke-width="1.0" stroke-linejoin="round" stroke-linecap="butt" d="m494.24173 448.35223l0 147.30713" fill-rule="evenodd"/><path fill="#a64d79" d="m66.718 166.75728l0 0c0 -8.784378 7.1211395 -15.905518 15.90551 -15.905518l0 0c4.2184067 0 8.264038 1.675766 11.246895 4.658615c2.9828644 2.9828644 4.658615 7.0285034 4.658615 11.246902l0 0c0 8.784378 -7.1211395 15.905518 -15.90551 15.905518l0 0c-8.78437 0 -15.90551 -7.1211395 -15.90551 -15.905518z" fill-rule="evenodd"/><path fill="#a64d79" d="m218.14713 111.36685l0 0c0 -11.628418 9.426697 -21.055115 21.05513 -21.055115l0 0c5.584152 0 10.939606 2.2182999 14.888214 6.1669006c3.9485931 3.9486008 6.1668854 9.304054 6.1668854 14.888214l0 0c0 11.628426 -9.4266815 21.055115 -21.0551 21.055115l0 0c-11.628433 0 -21.05513 -9.426689 -21.05513 -21.055115z" fill-rule="evenodd"/><path fill="#a64d79" d="m438.14313 151.09381l0 0c0 -6.4621735 5.238617 -11.70079 11.700775 -11.70079l0 0c3.103241 0 6.0794067 1.2327576 8.273712 3.4270782c2.194336 2.194336 3.4270935 5.170471 3.4270935 8.273712l0 0c0 6.4621735 -5.238617 11.70079 -11.700806 11.70079l0 0c-6.462158 0 -11.700775 -5.238617 -11.700775 -11.70079z" fill-rule="evenodd"/><path fill="#a64d79" d="m598.72375 128.84308l0 0c0 -15.003006 12.1623535 -27.165352 27.165405 -27.165352l0 0c7.204651 0 14.114258 2.862053 19.208801 7.9565506c5.0944824 5.09449 7.956543 12.004105 7.956543 19.208801l0 0c0 15.003006 -12.1623535 27.16536 -27.165344 27.16536l0 0c-15.003052 0 -27.165405 -12.1623535 -27.165405 -27.16536z" fill-rule="evenodd"/><path fill="#ffffff" d="m636.3522 120.157455q0 0.875 -0.5 1.28125q-0.484375 0.390625 -1.25 0.390625q-0.515625 0 -2.484375 -0.5q-1.953125 -0.515625 -4.390625 -0.796875q1.0625 1.453125 1.96875 2.4375q0.921875 0.96875 1.53125 1.625q0.625 0.671875 0.96875 1.1875q0.359375 0.515625 0.359375 1.109375q0 0.625 -0.5625 1.09375q-0.5625 0.46875 -1.1875 0.46875q-0.421875 0 -0.796875 -0.234375q-0.375 -0.25 -0.640625 -0.703125q-0.375 -0.671875 -0.734375 -2.171875q-0.359375 -1.5 -1.609375 -4.40625q-1.125 2.78125 -1.578125 4.421875q-0.4375 1.625 -0.765625 2.15625q-0.296875 0.46875 -0.625 0.703125q-0.3125 0.234375 -0.796875 0.234375q-0.65625 0 -1.21875 -0.4375q-0.546875 -0.453125 -0.546875 -1.125q0 -0.5625 0.328125 -1.046875q0.328125 -0.5 1.015625 -1.25q0.578125 -0.609375 1.546875 -1.65625q0.984375 -1.0625 1.9375 -2.40625q-2.296875 0.234375 -4.28125 0.765625q-1.96875 0.53125 -2.578125 0.53125q-0.78125 0 -1.28125 -0.390625q-0.484375 -0.390625 -0.484375 -1.28125q0 -0.796875 0.484375 -1.21875q0.5 -0.4375 1.28125 -0.4375q0.703125 0 2.46875 0.5q1.765625 0.484375 4.390625 0.734375q-0.90625 -1.234375 -1.921875 -2.34375q-1.0 -1.125 -1.5625 -1.703125q-0.65625 -0.703125 -1.0 -1.203125q-0.34375 -0.515625 -0.34375 -1.09375q0 -0.640625 0.5625 -1.109375q0.5625 -0.46875 1.203125 -0.46875q0.421875 0 0.78125 0.234375q0.359375 0.234375 0.640625 0.703125q0.328125 0.5625 0.859375 2.53125q0.546875 1.953125 1.484375 4.0625q1.0625 -2.390625 1.53125 -4.1875q0.484375 -1.796875 0.8125 -2.40625q0.265625 -0.4375 0.625 -0.6875q0.359375 -0.25 0.8125 -0.25q0.65625 0 1.203125 0.453125q0.546875 0.4375 0.546875 1.125q0 0.953125 -1.296875 2.25q-1.296875 1.28125 -3.53125 4.09375q2.53125 -0.28125 4.390625 -0.75q1.875 -0.484375 2.484375 -0.484375q0.765625 0 1.25 0.421875q0.5 0.421875 0.5 1.234375z" fill-rule="nonzero"/><path fill="#a64d79" d="m726.43933 148.32668l0 0c0 -8.784378 7.121155 -15.905518 15.905518 -15.905518l0 0c4.218384 0 8.264038 1.675766 11.246887 4.658615c2.9828491 2.9828644 4.6586304 7.0285034 4.6586304 11.246902l0 0c0 8.784363 -7.121155 15.905518 -15.905518 15.905518l0 0c-8.784363 0 -15.905518 -7.121155 -15.905518 -15.905518z" fill-rule="evenodd"/><path fill="#a64d79" d="m865.9692 98.04737l0 0c0 -6.462166 5.2385864 -11.700783 11.700745 -11.700783l0 0c3.1032715 0 6.0794067 1.2327576 8.273743 3.4270782c2.194336 2.1943283 3.427063 5.1704636 3.427063 8.273705l0 0c0 6.462166 -5.2386475 11.70079 -11.700806 11.70079l0 0c-6.462158 0 -11.700745 -5.2386246 -11.700745 -11.70079z" fill-rule="evenodd"/><path fill="#a64d79" d="m486.16544 490.91904l0 0c0 -4.4530945 3.6099243 -8.063019 8.062988 -8.063019l0 0c2.1384583 0 4.1893005 0.8495178 5.701416 2.3616028c1.512085 1.5121155 2.3615723 3.5629578 2.3615723 5.701416l0 0c0 4.453064 -3.6099243 8.062988 -8.062988 8.062988l0 0c-4.453064 0 -8.062988 -3.6099243 -8.062988 -8.062988z" fill-rule="evenodd"/><path fill="#a64d79" d="m482.46695 536.9601l0 0c0 -6.462158 5.238617 -11.700745 11.700806 -11.700745l0 0c3.103241 0 6.079376 1.232727 8.273682 3.427063c2.194336 2.194336 3.4270935 5.170471 3.4270935 8.273682l0 0c0 6.462158 -5.238617 11.700806 -11.700775 11.700806l0 0c-6.4621887 0 -11.700806 -5.2386475 -11.700806 -11.700806z" fill-rule="evenodd"/><path fill="#a64d79" d="m430.46194 577.5538l127.40158 0l0 97.700806l-127.40158 0z" fill-rule="evenodd"/></g></svg>