<svg version="1.1" viewBox="0.0 0.0 567.509186351706 567.8162729658793" fill="none" stroke="none" stroke-linecap="square" stroke-miterlimit="10" xmlns:xlink="http://www.w3.org/1999/xlink" xmlns="http://www.w3.org/2000/svg"><clipPath id="p.0"><path d="m0 0l567.5092 0l0 567.8163l-567.5092 0l0 -567.8163z" clip-rule="nonzero"/></clipPath><g clip-path="url(#p.0)"><path fill="#000000" fill-opacity="0.0" d="m0 0l567.5092 0l0 567.8163l-567.5092 0z" fill-rule="evenodd"/><g filter="url(#shadowFilter-p.1)"><use xlink:href="#p.1" transform="matrix(1.0 0.0 0.0 1.0 0.0 1.9999996796054789)"/></g><defs><filter id="shadowFilter-p.1" filterUnits="userSpaceOnUse"><feGaussianBlur in="SourceAlpha" stdDeviation="5.0" result="blur"/><feComponentTransfer in="blur" color-interpolation-filters="sRGB"><feFuncR type="linear" slope="0" intercept="0.4"/><feFuncG type="linear" slope="0" intercept="0.4"/><feFuncB type="linear" slope="0" intercept="0.4"/><feFuncA type="linear" slope="0.5" intercept="0"/></feComponentTransfer></filter></defs><g id="p.1"><path fill="#efefef" d="m8.400263 281.44882l0 0c0 -152.074 123.28034 -275.35434 275.35434 -275.35434l0 0c73.0285 0 143.06595 29.010462 194.7049 80.649414c51.638947 51.638954 80.649445 121.6764 80.649445 194.70493l0 0c0 152.074 -123.280365 275.35434 -275.35434 275.35434l0 0c-152.074 0 -275.35434 -123.280334 -275.35434 -275.35434z" fill-rule="evenodd"/></g><path fill="#000000" fill-opacity="0.0" d="m49.769028 92.00525l467.9685 0l0 331.3386l-467.9685 0z" fill-rule="evenodd"/><path fill="#a64d79" d="m135.07555 285.30524l77.921875 27.484375l0 38.28125l-117.703125 -49.90625l0 -32.265625l117.703125 -49.890625l0 38.28125l-77.921875 28.015625zm122.91408 101.59375l-29.406265 0l73.281265 -216.15625l29.40625 0l-73.28125 216.15625zm172.8086 -102.0l-79.4375 -27.75l0 -38.015625l119.078125 49.90625l0 32.125l-119.078125 50.046875l0 -38.140625l79.4375 -28.171875z" fill-rule="nonzero"/></g></svg>