<svg version="1.1" viewBox="0.0 0.0 960.0 720.0" fill="none" stroke="none" stroke-linecap="square" stroke-miterlimit="10" xmlns:xlink="http://www.w3.org/1999/xlink" xmlns="http://www.w3.org/2000/svg"><clipPath id="p.0"><path d="m0 0l960.0 0l0 720.0l-960.0 0l0 -720.0z" clip-rule="nonzero"/></clipPath><g clip-path="url(#p.0)"><path fill="#000000" fill-opacity="0.0" d="m0 0l960.0 0l0 720.0l-960.0 0z" fill-rule="evenodd"/><path fill="#6fa8dc" d="m323.22964 198.11406l0 0c0 -3.8202515 3.0969543 -6.9171753 6.917206 -6.9171753l73.28375 0c1.8345337 0 3.5939636 0.72875977 4.8911743 2.0259857c1.2972107 1.297226 2.026001 3.0566406 2.026001 4.8911896l0 139.77193c0 3.8202515 -3.0969238 6.917206 -6.9171753 6.917206l-73.28375 0c-3.8202515 0 -6.917206 -3.0969543 -6.917206 -6.917206z" fill-rule="evenodd"/><path fill="#ffffff" d="m329.98248 200.2024l73.60629 0l0 136.09448l-73.60629 0z" fill-rule="evenodd"/><path fill="#6fa8dc" d="m351.08966 196.779l0 0c0 -3.0829163 2.4992065 -5.582123 5.582123 -5.582123l20.237305 0l0 0c1.4804688 0 2.9003296 0.58810425 3.947174 1.634964c1.0468445 1.0468597 1.6349792 2.46669 1.6349792 3.9471588l0 2.3475494l0 0c0 3.0829315 -2.4992065 5.582138 -5.5821533 5.582138l-20.237305 0c-3.0829163 0 -5.582123 -2.4992065 -5.582123 -5.582138z" fill-rule="evenodd"/><path fill="#6fa8dc" d="m436.4224 198.36348l0 0c0 -3.8202515 3.0969238 -6.9171906 6.9171753 -6.9171906l73.28378 0c1.8345337 0 3.593933 0.728775 4.8911743 2.026001c1.2972412 1.297226 2.026001 3.0566406 2.026001 4.8911896l0 139.77193c0 3.8202515 -3.0969238 6.9171753 -6.9171753 6.9171753l-73.28378 0c-3.8202515 0 -6.9171753 -3.0969238 -6.9171753 -6.9171753z" fill-rule="evenodd"/><path fill="#ffffff" d="m443.17523 200.45181l73.60632 0l0 136.09448l-73.60632 0z" fill-rule="evenodd"/><path fill="#6fa8dc" d="m464.2824 197.02843l0 0c0 -3.0829315 2.4992065 -5.582138 5.582123 -5.582138l20.237305 0l0 0c1.4804688 0 2.900299 0.5881195 3.947174 1.6349792c1.0468445 1.0468445 1.6349487 2.46669 1.6349487 3.9471588l0 2.3475494l0 0c0 3.0829163 -2.4992065 5.582123 -5.582123 5.582123l-20.237305 0c-3.0829163 0 -5.582123 -2.4992065 -5.582123 -5.582123z" fill-rule="evenodd"/><path fill="#6fa8dc" d="m549.6151 198.61288l0 0c0 -3.8202515 3.0969849 -6.9171753 6.9172363 -6.9171753l73.28375 0c1.8345337 0 3.593933 0.728775 4.8911743 2.026001c1.2971802 1.297226 2.026001 3.0566254 2.026001 4.8911743l0 139.77194c0 3.8202515 -3.0969238 6.9171753 -6.9171753 6.9171753l-73.28375 0c-3.8202515 0 -6.9172363 -3.0969238 -6.9172363 -6.9171753z" fill-rule="evenodd"/><path fill="#ffffff" d="m556.368 200.70123l73.60626 0l0 136.09448l-73.60626 0z" fill-rule="evenodd"/><path fill="#6fa8dc" d="m577.47516 197.27785l0 0c0 -3.0829315 2.4992065 -5.582138 5.5820923 -5.582138l20.237305 0l0 0c1.4804688 0 2.9003296 0.5881195 3.9472046 1.6349792c1.046814 1.0468445 1.6349487 2.46669 1.6349487 3.9471588l0 2.3475342l0 0c0 3.0829315 -2.4992065 5.582138 -5.5821533 5.582138l-20.237305 0c-3.0828857 0 -5.5820923 -2.4992065 -5.5820923 -5.582138z" fill-rule="evenodd"/><path fill="#6fa8dc" d="m323.2668 376.54218l0 0c0 -3.8202515 3.0969238 -6.917206 6.9171753 -6.917206l73.28375 0c1.8345337 0 3.5939636 0.7287903 4.8911743 2.026001c1.2972412 1.2972412 2.026001 3.0566406 2.026001 4.891205l0 139.77191c0 3.8202515 -3.0969238 6.9171753 -6.9171753 6.9171753l-73.28375 0c-3.8202515 0 -6.9171753 -3.0969238 -6.9171753 -6.9171753z" fill-rule="evenodd"/><path fill="#ffffff" d="m330.01962 378.6305l73.60629 0l0 136.09448l-73.60629 0z" fill-rule="evenodd"/><path fill="#6fa8dc" d="m351.1268 375.20712l0 0c0 -3.0829468 2.4992065 -5.5821533 5.582123 -5.5821533l20.237305 0l0 0c1.4804993 0 2.9003296 0.58813477 3.947174 1.6349792c1.0468445 1.0468445 1.6349792 2.4667053 1.6349792 3.947174l0 2.3475342l0 0c0 3.0829468 -2.4992065 5.5821533 -5.5821533 5.5821533l-20.237305 0c-3.0829163 0 -5.582123 -2.4992065 -5.582123 -5.5821533z" fill-rule="evenodd"/><path fill="#6fa8dc" d="m549.6523 377.041l0 0c0 -3.8202515 3.0969238 -6.9171753 6.9171753 -6.9171753l73.28375 0c1.8345337 0 3.5939941 0.7287903 4.8911743 2.026001c1.2972412 1.2972107 2.026001 3.0566406 2.026001 4.8911743l0 139.77194c0 3.8202515 -3.0969238 6.9171753 -6.9171753 6.9171753l-73.28375 0c-3.8202515 0 -6.9171753 -3.0969238 -6.9171753 -6.9171753z" fill-rule="evenodd"/><path fill="#ffffff" d="m556.4051 379.12933l73.60632 0l0 136.09448l-73.60632 0z" fill-rule="evenodd"/><path fill="#6fa8dc" d="m577.51227 375.70596l0 0c0 -3.0829468 2.4992065 -5.5821533 5.5821533 -5.5821533l20.237305 0l0 0c1.4804688 0 2.9003296 0.58813477 3.9471436 1.6349792c1.046875 1.0468445 1.6350098 2.4666748 1.6350098 3.947174l0 2.3475342l0 0c0 3.0829163 -2.4992065 5.582123 -5.5821533 5.582123l-20.237305 0c-3.0829468 0 -5.5821533 -2.4992065 -5.5821533 -5.582123z" fill-rule="evenodd"/><path fill="#cfe2f3" d="m342.56613 422.78357l48.53543 0l0 48.53546l-48.53543 0z" fill-rule="evenodd"/><path fill="#9fc5e8" d="m455.72174 269.00125l0 0c0 -13.402679 10.865021 -24.2677 24.2677 -24.2677l0 0c6.4361877 0 12.608795 2.5567627 17.159882 7.107849c4.551056 4.5510864 7.107849 10.723663 7.107849 17.159851l0 0c0 13.40271 -10.865051 24.26773 -24.26773 24.26773l0 0c-13.402679 0 -24.2677 -10.865021 -24.2677 -24.26773z" fill-rule="evenodd"/><path fill="#9fc5e8" d="m568.9119 294.98706l24.2677 -48.53543l24.2677 48.53543z" fill-rule="evenodd"/><path fill="#cfe2f3" d="m567.4628 434.28217l12.487793 -12.487793l13.265442 13.265503l13.265503 -13.265503l12.487793 12.487793l-13.265503 13.265472l13.265503 13.265503l-12.487793 12.487762l-13.265503 -13.265503l-13.265442 13.265503l-12.487793 -12.487762l13.265503 -13.265503z" fill-rule="evenodd"/><path fill="#6fa8dc" d="m446.58823 371.44058l0 0c0.5305481 -3.7831726 4.0274963 -6.4199524 7.810669 -5.8894043l72.572296 10.17746c1.8167114 0.25476074 3.4578247 1.2208252 4.562317 2.685608c1.1044312 1.4647827 1.5817871 3.308319 1.3270264 5.125061l-19.410645 138.41168c-0.5305786 3.783142 -4.027527 6.419922 -7.810669 5.8894043l-72.572296 -10.17749c-3.7831726 -0.5305176 -6.419922 -4.027466 -5.889374 -7.8106384z" fill-rule="evenodd"/><path fill="#a64d79" d="m452.98563 374.44678l72.90262 10.223755l-18.89981 134.76898l-72.90265 -10.223755z" fill-rule="evenodd"/><path fill="#6fa8dc" d="m474.36462 373.98322l0 0c0.4277954 -3.0505066 3.247528 -5.1766357 6.2980347 -4.7488403l20.043976 2.8109436l0 0c1.4649048 0.20544434 2.788208 0.9844055 3.678772 2.1654968c0.8905945 1.1811218 1.2754822 2.667633 1.0700378 4.132538l-0.32574463 2.3228455l0 0c-0.4277954 3.0505066 -3.2474976 5.176605 -6.298004 4.74881l-20.044006 -2.8109436c-3.0505066 -0.4277954 -5.176605 -3.2474976 -4.74881 -6.298004z" fill-rule="evenodd"/><path fill="#9fc5e8" d="m342.49097 268.00055l24.2677 -24.267715l24.26773 24.267715l-24.26773 24.2677z" fill-rule="evenodd"/><path fill="#000000" fill-opacity="0.0" d="m442.35873 405.44568l86.58267 9.763794l-11.24408 99.87402l-86.5827 -9.763794z" fill-rule="evenodd"/><path fill="#ffffff" d="m501.09058 446.43207q-0.23599243 2.0961304 -1.539917 2.9239807q-1.2866516 0.8140564 -3.103241 0.6092224q-1.1644897 -0.13131714 -4.7134094 -1.5693359q-3.5333862 -1.4362183 -7.574707 -2.4108582q2.30307 3.8447876 5.2122803 7.3334045q2.9092407 3.4885864 2.6627502 5.677887q-0.17306519 1.5371704 -1.6532288 2.5338135q-1.4784241 0.98114014 -2.9689636 0.8130493q-1.0247498 -0.11553955 -1.8450928 -0.78985596q-0.8186035 -0.68981934 -1.3500977 -1.8347168q-0.443573 -1.0877991 -0.9971924 -4.829651q-0.5380554 -3.7401123 -1.691742 -7.738312q-1.9461975 3.459961 -3.4044495 7.1950684q-1.456543 3.719574 -2.0115051 4.4589233q-0.8763733 1.0804749 -1.7138672 1.536377q-0.82025146 0.44210815 -1.9847412 0.31079102q-1.5371399 -0.17333984 -2.750061 -1.4107971q-1.1956482 -1.2512207 -1.012085 -2.8815613q0.24645996 -2.1893005 3.8583984 -4.942505q3.611969 -2.7532349 6.7121277 -5.9887085q-3.9651184 0.024597168 -7.856964 0.65493774q-3.8900757 0.61483765 -5.0079956 0.48876953q-1.8165894 -0.20483398 -2.9055176 -1.2868042q-1.0716553 -1.0957336 -0.83566284 -3.191864q0.21502686 -1.9098206 1.512146 -2.817047q1.3144226 -0.9210205 3.1310425 -0.716156q1.4439697 0.1628418 4.5185547 1.484436q3.0918274 1.3078308 7.7800293 2.4025574q-2.633728 -4.2594604 -5.375885 -7.556244q-2.740387 -3.312317 -2.4991455 -5.455017q0.17306519 -1.5371704 1.6514893 -2.5183105q1.4801636 -0.9966736 2.9707031 -0.82858276q1.0713501 0.12081909 1.8623657 0.7760925q0.8065796 0.65701294 1.3380737 1.8019104q0.443573 1.0877991 1.0074768 4.8779907q0.5638733 3.7901917 1.676239 7.7365723q1.9671326 -3.6462708 3.3751526 -7.2141113q1.4234924 -3.5660706 2.0460205 -4.4864807q0.6690674 -0.91516113 1.6377869 -1.4191589q0.9842529 -0.5022278 2.0555725 -0.3814392q1.5371399 0.17333984 2.732788 1.4245911q1.2129211 1.2374573 1.0293884 2.8677673q-0.24124146 2.1427307 -3.4836426 4.686035q-3.2250977 2.529541 -7.040344 6.2504272q4.726166 -0.08026123 8.153717 -0.6371765q3.4431152 -0.5551758 4.654175 -0.41860962q1.8166199 0.2048645 2.877777 1.3937683q1.0784302 1.1751099 0.8634033 3.0849304z" fill-rule="nonzero"/></g></svg>