<svg version="1.1" viewBox="0.0 0.0 912.5301837270341 689.0734908136483" fill="none" stroke="none" stroke-linecap="square" stroke-miterlimit="10" xmlns:xlink="http://www.w3.org/1999/xlink" xmlns="http://www.w3.org/2000/svg"><clipPath id="p.0"><path d="m0 0l912.5302 0l0 689.0735l-912.5302 0l0 -689.0735z" clip-rule="nonzero"/></clipPath><g clip-path="url(#p.0)"><path fill="#000000" fill-opacity="0.0" d="m0 0l912.5302 0l0 689.0735l-912.5302 0z" fill-rule="evenodd"/><path fill="#f3f3f3" d="m912.5302 689.063l0 -539.2441l-912.53546 539.2441z" fill-rule="evenodd"/><path fill="#cfe2f3" d="m-97.338585 696.0l1035.8865 -602.92914l87.23163 0l-1035.8865 602.92914z" fill-rule="evenodd"/><path fill="#9fc5e8" d="m598.67456 197.91339l62.614136 15.653534l0 93.41733l-62.614136 -15.653534z" fill-rule="evenodd"/><path fill="#a64d79" d="m464.83466 274.79266l62.614136 15.653534l0 93.41733l-62.614136 -15.653564z" fill-rule="evenodd"/><path fill="#9fc5e8" d="m327.42914 355.3517l62.614166 15.653534l0 93.41733l-62.614166 -15.653534z" fill-rule="evenodd"/><path fill="#9fc5e8" d="m188.18898 436.86877l62.614166 15.653534l0 93.41733l-62.614166 -15.653564z" fill-rule="evenodd"/><path fill="#9fc5e8" d="m726.5171 122.74541l62.614136 15.653549l0 93.41731l-62.614136 -15.653534z" fill-rule="evenodd"/><path fill="#9fc5e8" d="m34.136482 525.7638l62.614174 15.653503l0 93.41736l-62.614174 -15.653564z" fill-rule="evenodd"/><path fill="#9fc5e8" d="m858.0236 46.90551l62.614197 15.653545l0 93.41733l-62.614197 -15.653549z" fill-rule="evenodd"/><path fill="#cfe2f3" fill-opacity="0.7308" d="m-127.97638 620.45667l1035.8865 -602.9291l87.23157 0l-1035.8865 602.9291z" fill-rule="evenodd"/></g></svg>