<svg version="1.1" viewBox="0.0 0.0 960.0 720.0" fill="none" stroke="none" stroke-linecap="square" stroke-miterlimit="10" xmlns:xlink="http://www.w3.org/1999/xlink" xmlns="http://www.w3.org/2000/svg"><clipPath id="p.0"><path d="m0 0l960.0 0l0 720.0l-960.0 0l0 -720.0z" clip-rule="nonzero"/></clipPath><g clip-path="url(#p.0)"><path fill="#000000" fill-opacity="0.0" d="m0 0l960.0 0l0 720.0l-960.0 0z" fill-rule="evenodd"/><path fill="#000000" fill-opacity="0.0" d="m733.2636 348.31125c-19.593994 -11.6026 -45.73712 -14.33316 -60.272034 -32.184784c-5.7214966 -7.0270996 -4.229065 -24.846008 4.435425 -28.9216c18.083008 -8.505859 43.971375 25.0466 35.822815 43.997192c-11.786804 27.411682 -53.163635 30.100098 -80.802 29.270416" fill-rule="evenodd"/><path stroke="#cfe2f3" stroke-width="12.0" stroke-linejoin="round" stroke-linecap="butt" d="m733.2636 348.31125c-19.593994 -11.6026 -45.73712 -14.33316 -60.272034 -32.184784c-5.7214966 -7.0270996 -4.229065 -24.846008 4.435425 -28.9216c18.083008 -8.505859 43.971375 25.0466 35.822815 43.997192c-11.786804 27.411682 -53.163635 30.100098 -80.802 29.270416" fill-rule="evenodd"/><path fill="#6fa8dc" d="m499.441 279.95276l80.04727 0l0 0c44.208862 0 80.04724 35.83838 80.04724 80.04724c0 44.208862 -35.83838 80.04724 -80.04724 80.04724l-80.04727 0z" fill-rule="evenodd"/><path fill="#a64d79" d="m434.7196 440.04724l-80.04724 0l0 0c-44.208862 0 -80.04724 -35.83838 -80.04724 -80.04724c0 -44.208862 35.83838 -80.04724 80.04724 -80.04724l80.04724 0z" fill-rule="evenodd"/><path fill="#f3f3f3" d="m350.8286 374.1375q0 -1.453125 0.828125 -2.125q0.8125 -0.65625 2.09375 -0.65625q0.859375 0 4.125 0.84375q3.265625 0.84375 7.328125 1.3125q-1.765625 -2.421875 -3.28125 -4.046875q-1.53125 -1.625 -2.546875 -2.71875q-1.046875 -1.125 -1.625 -1.984375q-0.59375 -0.859375 -0.59375 -1.84375q0 -1.046875 0.9375 -1.828125q0.9375 -0.78125 1.984375 -0.78125q0.703125 0 1.328125 0.40625q0.625 0.40625 1.0625 1.15625q0.625 1.125 1.234375 3.625q0.59375 2.5 2.671875 7.34375q1.875 -4.640625 2.625 -7.359375q0.734375 -2.71875 1.28125 -3.609375q0.5 -0.78125 1.03125 -1.171875q0.53125 -0.390625 1.34375 -0.390625q1.09375 0 2.015625 0.734375q0.921875 0.75 0.921875 1.875q0 0.9375 -0.546875 1.75q-0.546875 0.828125 -1.6875 2.078125q-0.96875 1.015625 -2.59375 2.765625q-1.625 1.765625 -3.21875 4.0q3.828125 -0.390625 7.125 -1.28125q3.296875 -0.875 4.3125 -0.875q1.296875 0 2.125 0.640625q0.8125 0.65625 0.8125 2.140625q0 1.328125 -0.8125 2.046875q-0.828125 0.71875 -2.125 0.71875q-1.171875 0 -4.109375 -0.828125q-2.953125 -0.8125 -7.328125 -1.234375q1.515625 2.0625 3.203125 3.921875q1.671875 1.859375 2.609375 2.828125q1.09375 1.171875 1.671875 2.015625q0.5625 0.84375 0.5625 1.8125q0 1.0625 -0.9375 1.84375q-0.9375 0.78125 -2.0 0.78125q-0.703125 0 -1.296875 -0.390625q-0.609375 -0.390625 -1.078125 -1.171875q-0.546875 -0.9375 -1.4375 -4.203125q-0.90625 -3.265625 -2.46875 -6.78125q-1.765625 3.984375 -2.5625 6.96875q-0.796875 3.0 -1.34375 4.015625q-0.4375 0.734375 -1.03125 1.140625q-0.609375 0.421875 -1.359375 0.421875q-1.09375 0 -2.0 -0.75q-0.921875 -0.734375 -0.921875 -1.875q0 -1.59375 2.171875 -3.75q2.15625 -2.140625 5.875 -6.828125q-4.21875 0.46875 -7.328125 1.265625q-3.109375 0.796875 -4.125 0.796875q-1.28125 0 -2.09375 -0.703125q-0.828125 -0.703125 -0.828125 -2.0625z" fill-rule="nonzero"/><path fill="#a64d79" d="m429.71478 303.53998l32.283447 0l0 32.283478l-32.283447 0z" fill-rule="evenodd"/><path fill="#a64d79" d="m445.75726 319.6817l0 0c0 -8.914825 7.226898 -16.141724 16.141724 -16.141724l0 0c4.2810364 0 8.386749 1.7006531 11.41394 4.7278137c3.0271606 3.0271606 4.727783 7.1328735 4.727783 11.41391l0 0c0 8.914856 -7.226898 16.141754 -16.141724 16.141754l0 0c-8.914825 0 -16.141724 -7.226898 -16.141724 -16.141754z" fill-rule="evenodd"/><path fill="#a64d79" d="m429.71478 379.29898l32.283447 0l0 32.283478l-32.283447 0z" fill-rule="evenodd"/><path fill="#a64d79" d="m445.75726 395.4407l0 0c0 -8.914825 7.226898 -16.141724 16.141724 -16.141724l0 0c4.2810364 0 8.386749 1.7006531 11.41394 4.7278137c3.0271606 3.0271606 4.727783 7.1328735 4.727783 11.41391l0 0c0 8.914825 -7.226898 16.141754 -16.141724 16.141754l0 0c-8.914825 0 -16.141724 -7.2269287 -16.141724 -16.141754z" fill-rule="evenodd"/><path fill="#ffffff" d="m482.21298 319.6817l0 0c0 -8.914825 7.226898 -16.141724 16.141754 -16.141724l0 0c4.2810364 0 8.386749 1.7006531 11.41391 4.7278137c3.0271912 3.0271606 4.7278137 7.1328735 4.7278137 11.41391l0 0c0 8.914856 -7.226898 16.141754 -16.141724 16.141754l0 0c-8.914856 0 -16.141754 -7.226898 -16.141754 -16.141754z" fill-rule="evenodd"/><path fill="#ffffff" d="m482.21298 395.4407l0 0c0 -8.914825 7.226898 -16.141724 16.141754 -16.141724l0 0c4.2810364 0 8.386749 1.7006531 11.41391 4.7278137c3.0271912 3.0271606 4.7278137 7.1328735 4.7278137 11.41391l0 0c0 8.914825 -7.226898 16.141754 -16.141724 16.141754l0 0c-8.914856 0 -16.141754 -7.2269287 -16.141754 -16.141754z" fill-rule="evenodd"/><path fill="#000000" fill-opacity="0.0" d="m274.62314 365.63104c-17.957672 0 -36.79384 10.3984375 -53.829987 2.8588257c-6.7061005 -2.9678955 -12.854111 -18.220978 -8.612793 -25.729218c8.851715 -15.669891 39.901016 -0.8082886 41.987396 18.582214c3.0178833 28.047974 -23.977158 50.22281 -43.06401 62.893585" fill-rule="evenodd"/><path stroke="#d5a6bd" stroke-width="12.0" stroke-linejoin="round" stroke-linecap="butt" d="m274.62314 365.63104c-17.957672 0 -36.79384 10.3984375 -53.829987 2.8588257c-6.7061005 -2.9678955 -12.854111 -18.220978 -8.612793 -25.729218c8.851715 -15.669891 39.901016 -0.8082886 41.987396 18.582214c3.0178833 28.047974 -23.977158 50.22281 -43.06401 62.893585" fill-rule="evenodd"/></g></svg>