<svg version="1.1" viewBox="0.0 0.0 566.9291338582677 566.9291338582677" fill="none" stroke="none" stroke-linecap="square" stroke-miterlimit="10" xmlns:xlink="http://www.w3.org/1999/xlink" xmlns="http://www.w3.org/2000/svg"><clipPath id="p.0"><path d="m0 0l566.92914 0l0 566.92914l-566.92914 0l0 -566.92914z" clip-rule="nonzero"/></clipPath><g clip-path="url(#p.0)"><path fill="#000000" fill-opacity="0.0" d="m0 0l566.92914 0l0 566.92914l-566.92914 0z" fill-rule="evenodd"/><g filter="url(#shadowFilter-p.1)"><use xlink:href="#p.1" transform="matrix(1.0 0.0 0.0 1.0 0.0 2.0)"/></g><defs><filter id="shadowFilter-p.1" filterUnits="userSpaceOnUse"><feGaussianBlur in="SourceAlpha" stdDeviation="5.0" result="blur"/><feComponentTransfer in="blur" color-interpolation-filters="sRGB"><feFuncR type="linear" slope="0" intercept="0.0"/><feFuncG type="linear" slope="0" intercept="0.0"/><feFuncB type="linear" slope="0" intercept="0.0"/><feFuncA type="linear" slope="0.5" intercept="0"/></feComponentTransfer></filter></defs><g id="p.1"><path fill="#efefef" d="m5.781429 283.46378l0 0c0 -154.4223 124.32383 -279.60632 277.68503 -279.60632l0 0c73.64667 0 144.27695 29.458435 196.35297 81.89479c52.07608 52.436356 81.33206 123.55531 81.33206 197.71152l0 0c0 154.42227 -124.32382 279.6063 -277.68503 279.6063l0 0c-153.3612 0 -277.68503 -125.18402 -277.68503 -279.6063z" fill-rule="evenodd"/></g><path fill="#9fc5e8" d="m168.37234 99.85465l235.35309 0l0 359.47717l-235.35309 0z" fill-rule="evenodd"/><path fill="#6fa8dc" d="m151.60829 116.42249l32.737854 0l0 24.958366l-32.737854 0z" fill-rule="evenodd"/><path fill="#6fa8dc" d="m151.60829 166.653l32.737854 0l0 24.95839l-32.737854 0z" fill-rule="evenodd"/><path fill="#6fa8dc" d="m151.60829 216.88353l32.737854 0l0 24.958374l-32.737854 0z" fill-rule="evenodd"/><path fill="#6fa8dc" d="m151.60829 267.11404l32.737854 0l0 24.958374l-32.737854 0z" fill-rule="evenodd"/><path fill="#6fa8dc" d="m151.60829 317.34457l32.737854 0l0 24.958374l-32.737854 0z" fill-rule="evenodd"/><path fill="#6fa8dc" d="m151.60829 367.57507l32.737854 0l0 24.958374l-32.737854 0z" fill-rule="evenodd"/><path fill="#6fa8dc" d="m151.60829 417.8056l32.737854 0l0 24.958374l-32.737854 0z" fill-rule="evenodd"/><path fill="#a64d79" d="m269.31323 192.16797l59.218567 5.8131714l-18.598724 192.2526l-59.218536 -5.8131714z" fill-rule="evenodd"/><path fill="#f3f3f3" d="m299.75467 283.46805q-0.084228516 0.87094116 -0.6209717 1.2264404q-0.51968384 0.3414917 -1.2816162 0.26669312q-0.5131836 -0.05038452 -2.424347 -0.74038696q-1.8941345 -0.7040405 -4.2929077 -1.2221069q0.917511 1.5501709 1.7246399 2.6184998q0.8241577 1.0543213 1.3674316 1.7670593q0.557312 0.72979736 0.84976196 1.2766113q0.30801392 0.54833984 0.2508545 1.1393433q-0.060180664 0.62210083 -0.6651306 1.0337219q-0.60494995 0.41159058 -1.2269592 0.35055542q-0.41986084 -0.041229248 -0.7705078 -0.31115723q-0.3491211 -0.28546143 -0.56985474 -0.76242065q-0.3085022 -0.7054138 -0.5217285 -2.233551q-0.2131958 -1.5281372 -1.1773987 -4.5429993q-1.3874207 2.6584167 -1.9963379 4.247162q-0.5918884 1.574707 -0.9696045 2.0714417q-0.34057617 0.43756104 -0.6897278 0.63879395q-0.33355713 0.20275879 -0.8156128 0.15542603q-0.6531067 -0.06411743 -1.1708069 -0.5545349q-0.50061035 -0.50445557 -0.4359131 -1.1731873q0.0541687 -0.559906 0.42733765 -1.0099792q0.37472534 -0.4656067 1.131134 -1.1449585q0.6340637 -0.55007935 1.6989746 -1.4974365q1.0819702 -0.96139526 2.1599426 -2.20578q-2.3084717 0.008880615 -4.334503 0.34381104q-2.010498 0.33642578 -2.6169434 0.2769165q-0.77752686 -0.07632446 -1.2375183 -0.51397705q-0.4444275 -0.43615723 -0.3586731 -1.3226318q0.07672119 -0.7931824 0.59939575 -1.1657715q0.5397339 -0.3866272 1.3172607 -0.31030273q0.69976807 0.06869507 2.408783 0.7388611q1.7105408 0.65463257 4.2989197 1.1599121q-0.78305054 -1.3171692 -1.6870117 -2.5205994q-0.88687134 -1.2174683 -1.3910217 -1.8478699q-0.5853882 -0.76397705 -0.879364 -1.295227q-0.29244995 -0.54681396 -0.23678589 -1.1222534q0.061676025 -0.6376648 0.666626 -1.0492859q0.60494995 -0.4116211 1.2425232 -0.34902954q0.41986084 0.041229248 0.75494385 0.30963135q0.335083 0.26837158 0.56985474 0.76242065q0.27236938 0.59194946 0.61151123 2.6034546q0.35620117 1.997467 1.0860901 4.1886597q1.2876282 -2.2757263 1.9271545 -4.018463q0.65509033 -1.7412109 1.0403137 -2.3157043q0.30648804 -0.40951538 0.6882019 -0.62323q0.38174438 -0.21374512 0.83270264 -0.16946411q0.6531067 0.06411743 1.153717 0.5685425q0.50213623 0.48892212 0.4359436 1.1732178q-0.09176636 0.94869995 -1.5073242 2.112854q-1.414032 1.1485901 -3.9085693 3.7297363q2.5462341 -0.03265381 4.441864 -0.31756592q1.9126587 -0.2989502 2.5191345 -0.2394104q0.7619629 0.074798584 1.2033997 0.5420227q0.4569702 0.46875 0.37872314 1.2774963z" fill-rule="nonzero"/><path fill="#c27ba0" d="m262.09894 168.98917l77.99011 7.6928864l-2.8002014 28.717789l-77.99008 -7.6928864z" fill-rule="evenodd"/><path fill="#a64d79" d="m250.71498 383.40372l0 0c0 -16.696686 13.4422455 -30.232025 30.024124 -30.232025l0 0c7.9628906 0 15.59964 3.1851501 21.230255 8.854767c5.630615 5.669586 8.793854 13.359222 8.793854 21.377258l0 0c0 16.696655 -13.442261 30.231995 -30.024109 30.231995l0 0c-16.581879 0 -30.024124 -13.535339 -30.024124 -30.231995z" fill-rule="evenodd"/></g></svg>