<svg version="1.1" viewBox="0.0 0.0 960.0 720.0" fill="none" stroke="none" stroke-linecap="square" stroke-miterlimit="10" xmlns:xlink="http://www.w3.org/1999/xlink" xmlns="http://www.w3.org/2000/svg"><clipPath id="p.0"><path d="m0 0l960.0 0l0 720.0l-960.0 0l0 -720.0z" clip-rule="nonzero"/></clipPath><g clip-path="url(#p.0)"><path fill="#000000" fill-opacity="0.0" d="m0 0l960.0 0l0 720.0l-960.0 0z" fill-rule="evenodd"/><path fill="#9fc5e8" d="m380.42426 197.37009l214.42517 0l0 325.25986l-214.42517 0z" fill-rule="evenodd"/><path fill="#6fa8dc" d="m365.15088 212.36089l29.826782 0l0 22.582687l-29.826782 0z" fill-rule="evenodd"/><path fill="#6fa8dc" d="m365.15088 257.81015l29.826782 0l0 22.582672l-29.826782 0z" fill-rule="evenodd"/><path fill="#6fa8dc" d="m365.15088 303.2594l29.826782 0l0 22.582672l-29.826782 0z" fill-rule="evenodd"/><path fill="#6fa8dc" d="m365.15088 348.70865l29.826782 0l0 22.582703l-29.826782 0z" fill-rule="evenodd"/><path fill="#6fa8dc" d="m365.15088 394.15793l29.826782 0l0 22.582672l-29.826782 0z" fill-rule="evenodd"/><path fill="#6fa8dc" d="m365.15088 439.60718l29.826782 0l0 22.582672l-29.826782 0z" fill-rule="evenodd"/><path fill="#6fa8dc" d="m365.15088 485.05643l29.826782 0l0 22.582672l-29.826782 0z" fill-rule="evenodd"/><path fill="#a64d79" d="m472.38934 280.89642l53.95276 5.259857l-16.944885 173.95276l-53.95273 -5.259857z" fill-rule="evenodd"/><path fill="#f3f3f3" d="m501.03116 362.76425q-0.08483887 0.8708801 -0.6218567 1.2267151q-0.5199585 0.34179688 -1.2819824 0.26748657q-0.5131836 -0.05001831 -2.4241638 -0.738678q-1.8939209 -0.7027283 -4.2926636 -1.2191467q0.91659546 1.5493774 1.7231445 2.617035q0.8236084 1.0536499 1.3664856 1.7659302q0.5569153 0.7293396 0.84902954 1.2758789q0.30770874 0.5480957 0.25012207 1.1390381q-0.060577393 0.6220398 -0.66586304 1.0340271q-0.60531616 0.4119568 -1.227356 0.35131836q-0.41989136 -0.04095459 -0.77038574 -0.3106079q-0.34899902 -0.2852173 -0.5694275 -0.7619629q-0.30810547 -0.70510864 -0.5203552 -2.2329102q-0.21224976 -1.5278015 -1.1745911 -4.5416565q-1.3893433 2.6589966 -1.9993896 4.247925q-0.59298706 1.5748901 -0.97106934 2.0718079q-0.34091187 0.43774414 -0.69021606 0.63916016q-0.33374023 0.20297241 -0.8158264 0.15597534q-0.6531677 -0.063690186 -1.1705933 -0.55371094q-0.5003662 -0.50405884 -0.43521118 -1.17276q0.054534912 -0.559845 0.42807007 -1.0101013q0.37506104 -0.4658203 1.132019 -1.1455688q0.63449097 -0.55041504 1.7001648 -1.498352q1.0827332 -0.9619751 2.1616516 -2.2069092q-2.3087769 0.010375977 -4.3352966 0.34658813q-2.0109558 0.33773804 -2.6174622 0.27859497q-0.7775574 -0.075805664 -1.2373352 -0.51309204q-0.44421387 -0.43579102 -0.35787964 -1.3222351q0.07727051 -0.79312134 0.60025024 -1.1659851q0.5400696 -0.38693237 1.317627 -0.3111267q0.6998291 0.06820679 2.4086304 0.7371826q1.7103271 0.65341187 4.298706 1.1569519q-0.7822876 -1.3164978 -1.6855774 -2.5191956q-0.88619995 -1.2167358 -1.3900146 -1.8467102q-0.58496094 -0.76348877 -0.8786316 -1.2944946q-0.29211426 -0.5465393 -0.23608398 -1.1219482q0.06210327 -0.63760376 0.66741943 -1.0495605q0.60528564 -0.4119873 1.2428894 -0.349823q0.41989136 0.04095459 0.7548218 0.30908203q0.33496094 0.26815796 0.569458 0.7619629q0.2720337 0.5917053 0.6098938 2.6027222q0.35494995 1.9969788 1.0834961 4.187378q1.2892761 -2.276245 1.9300232 -4.0191956q0.65631104 -1.741394 1.0419617 -2.3160706q0.3067932 -0.40966797 0.6886902 -0.6236267q0.3819275 -0.21392822 0.83291626 -0.16998291q0.6531372 0.063690186 1.1535034 0.567749q0.5018921 0.48849487 0.4352417 1.17276q-0.09240723 0.9486389 -1.5089111 2.113556q-1.414978 1.1493835 -3.9114685 3.731842q2.5465698 -0.034332275 4.442627 -0.3204651q1.9130859 -0.30014038 2.5195923 -0.24102783q0.7620239 0.074279785 1.2032166 0.5411682q0.45672607 0.4684143 0.3779602 1.2770691z" fill-rule="nonzero"/><path fill="#c27ba0" d="m465.81656 259.92392l71.055145 6.9606323l-2.5512085 25.984253l-71.055115 -6.9606323z" fill-rule="evenodd"/><path fill="#a64d79" d="m455.4449 453.92914l0 0c0 -15.107391 12.246948 -27.35434 27.35434 -27.35434l0 0c7.254822 0 14.212494 2.881958 19.342407 8.011902c5.129944 5.129944 8.011902 12.087616 8.011902 19.342438l0 0c0 15.107361 -12.246948 27.35434 -27.35431 27.35434l0 0c-15.107391 0 -27.35434 -12.246979 -27.35434 -27.35434z" fill-rule="evenodd"/></g></svg>