<svg version="1.1" viewBox="0.0 0.0 567.509186351706 567.8162729658793" fill="none" stroke="none" stroke-linecap="square" stroke-miterlimit="10" xmlns:xlink="http://www.w3.org/1999/xlink" xmlns="http://www.w3.org/2000/svg"><clipPath id="p.0"><path d="m0 0l567.5092 0l0 567.8163l-567.5092 0l0 -567.8163z" clip-rule="nonzero"/></clipPath><g clip-path="url(#p.0)"><path fill="#000000" fill-opacity="0.0" d="m0 0l567.5092 0l0 567.8163l-567.5092 0z" fill-rule="evenodd"/><g filter="url(#shadowFilter-p.1)"><use xlink:href="#p.1" transform="matrix(1.0 0.0 0.0 1.0 0.0 1.9999996796054789)"/></g><defs><filter id="shadowFilter-p.1" filterUnits="userSpaceOnUse"><feGaussianBlur in="SourceAlpha" stdDeviation="5.0" result="blur"/><feComponentTransfer in="blur" color-interpolation-filters="sRGB"><feFuncR type="linear" slope="0" intercept="0.4"/><feFuncG type="linear" slope="0" intercept="0.4"/><feFuncB type="linear" slope="0" intercept="0.4"/><feFuncA type="linear" slope="0.5" intercept="0"/></feComponentTransfer></filter></defs><g id="p.1"><path fill="#efefef" d="m8.400263 281.44882l0 0c0 -152.074 123.28034 -275.35434 275.35434 -275.35434l0 0c73.0285 0 143.06595 29.010462 194.7049 80.649414c51.638947 51.638954 80.649445 121.6764 80.649445 194.70493l0 0c0 152.074 -123.280365 275.35434 -275.35434 275.35434l0 0c-152.074 0 -275.35434 -123.280334 -275.35434 -275.35434z" fill-rule="evenodd"/></g><path fill="#a64d79" d="m90.084915 283.90814l107.79051 0l0 -159.74805l171.75754 0l0 159.74805l107.79053 0l-193.66928 159.74802z" fill-rule="evenodd"/><path fill="#9fc5e8" d="m216.1571 191.22606l38.519684 0l0 38.519684l-38.519684 0z" fill-rule="evenodd"/><path fill="#6fa8dc" d="m216.1571 159.64653l0 0c0 -10.636917 8.622925 -19.259842 19.259842 -19.259842l0 0c5.108017 0 10.006836 2.0291595 13.618759 5.641083c3.6119232 3.611908 5.641083 8.510727 5.641083 13.618759l0 0c0 10.636917 -8.622925 19.259842 -19.259842 19.259842l0 0c-10.636917 0 -19.259842 -8.622925 -19.259842 -19.259842z" fill-rule="evenodd"/><path fill="#9fc5e8" d="m319.6055 229.74574l19.259827 -38.519684l19.259857 38.519684z" fill-rule="evenodd"/><path fill="#cfe2f3" d="m317.88327 260.98987l19.259827 -19.259842l19.259857 19.259842l-19.259857 19.259857z" fill-rule="evenodd"/><path fill="#cfe2f3" d="m267.02017 262.77866l0 0c0 -10.636917 8.622925 -19.259842 19.259857 -19.259842l0 0c5.108032 0 10.006836 2.0291595 13.618744 5.641083c3.6119385 3.6119232 5.641083 8.510727 5.641083 13.618759l0 0c0 10.636932 -8.622925 19.259857 -19.259827 19.259857l0 0c-10.636932 0 -19.259857 -8.622925 -19.259857 -19.259857zm9.629913 0l0 0c0 5.318451 4.3114624 9.629913 9.629944 9.629913c5.318451 0 9.629913 -4.3114624 9.629913 -9.629913c0 -5.318451 -4.3114624 -9.629913 -9.629913 -9.629913l0 0c-5.3184814 0 -9.629944 4.3114624 -9.629944 9.629913z" fill-rule="evenodd"/><path fill="#cfe2f3" d="m214.9699 252.2474l9.9158325 -9.9158325l10.533386 10.533371l10.533386 -10.533371l9.9158325 9.9158325l-10.533386 10.533386l10.533386 10.533386l-9.9158325 9.9158325l-10.533386 -10.533386l-10.533386 10.533386l-9.9158325 -9.9158325l10.533386 -10.533386z" fill-rule="evenodd"/><path fill="#9fc5e8" d="m291.31888 199.82288c10.123383 -21.616806 39.161438 3.7296448 -2.7401428 28.771652c-36.421265 -32.501312 -3.1207275 -51.910767 2.7401428 -28.771652z" fill-rule="evenodd"/><path fill="#6fa8dc" d="m268.80045 154.05745l11.890503 0l0 -11.890503l11.193298 0l0 11.890503l11.890503 0l0 11.193298l-11.890503 0l0 11.890488l-11.193298 0l0 -11.890488l-11.890503 0z" fill-rule="evenodd"/><path fill="#6fa8dc" d="m318.18405 159.65752l8.960632 -17.92125l23.46457 0l8.960632 17.92125l-8.960632 17.921265l-23.46457 0z" fill-rule="evenodd"/></g></svg>