<svg version="1.1" viewBox="0.0 0.0 960.0 720.0" fill="none" stroke="none" stroke-linecap="square" stroke-miterlimit="10" xmlns:xlink="http://www.w3.org/1999/xlink" xmlns="http://www.w3.org/2000/svg"><clipPath id="p.0"><path d="m0 0l960.0 0l0 720.0l-960.0 0l0 -720.0z" clip-rule="nonzero"/></clipPath><g clip-path="url(#p.0)"><path fill="#000000" fill-opacity="0.0" d="m0 0l960.0 0l0 720.0l-960.0 0z" fill-rule="evenodd"/><path fill="#6fa8dc" d="m357.71127 255.1483l75.968506 0l0 75.96849l-75.968506 0z" fill-rule="evenodd"/><path fill="#9fc5e8" d="m357.71127 338.74408l75.968506 0l0 75.968506l-75.968506 0z" fill-rule="evenodd"/><path fill="#cfe2f3" d="m357.71127 422.3399l75.968506 0l0 75.968506l-75.968506 0z" fill-rule="evenodd"/><path fill="#a64d79" d="m445.88983 215.39697l75.590515 7.3700867l-7.370056 75.590546l-75.590546 -7.3700867z" fill-rule="evenodd"/><path fill="#f3f3f3" d="m490.13867 249.13899q-0.0848999 0.8708801 -0.62197876 1.2266846q-0.519989 0.34178162 -1.2820129 0.26748657q-0.5131836 -0.05003357 -2.4241333 -0.73872375q-1.8938599 -0.7027283 -4.292572 -1.2191772q0.9164734 1.5493622 1.7229309 2.617035q0.82351685 1.0536346 1.366333 1.7659302q0.55685425 0.72935486 0.848938 1.2758942q0.3076477 0.5480652 0.25003052 1.1390228q-0.060638428 0.6220398 -0.6659851 1.0339966q-0.60531616 0.4119568 -1.2273865 0.35131836q-0.41986084 -0.04095459 -0.7703552 -0.3106079q-0.3489685 -0.2852173 -0.56936646 -0.76197815q-0.30804443 -0.7050934 -0.5201721 -2.2328796q-0.21209717 -1.5278015 -1.1741943 -4.541641q-1.3895874 2.658966 -1.9997559 4.247864q-0.59313965 1.5748901 -0.97125244 2.0717773q-0.3409729 0.43772888 -0.6903076 0.63916016q-0.33377075 0.2029419 -0.81585693 0.15594482q-0.6531372 -0.063690186 -1.1705322 -0.55371094q-0.5003357 -0.5040436 -0.43511963 -1.1727448q0.054595947 -0.559845 0.42816162 -1.0101013q0.37509155 -0.46580505 1.1321411 -1.1455383q0.6345215 -0.5503998 1.7002869 -1.4983368q1.0828247 -0.96195984 2.1618652 -2.2068787q-2.3087769 0.010391235 -4.3353577 0.34657288q-2.0109863 0.33769226 -2.6174927 0.2785492q-0.7775574 -0.075805664 -1.2373047 -0.5131073q-0.44418335 -0.43579102 -0.35775757 -1.3222046q0.07733154 -0.79312134 0.6003723 -1.1660004q0.5400696 -0.3869171 1.3176575 -0.3110962q0.6997986 0.068222046 2.4085693 0.7371979q1.7102966 0.6534271 4.298645 1.1569824q-0.78219604 -1.3164978 -1.6853638 -2.5191956q-0.8861389 -1.2167206 -1.3898621 -1.8467102q-0.5849304 -0.76348877 -0.87854004 -1.2944794q-0.29208374 -0.54655457 -0.23599243 -1.1219482q0.062164307 -0.63760376 0.667511 -1.0495605q0.60531616 -0.41194153 1.2429199 -0.34977722q0.41989136 0.04093933 0.7548218 0.30908203q0.33493042 0.2681427 0.56936646 0.7619629q0.27200317 0.59169006 0.6097107 2.602707q0.35473633 1.9969788 1.0831299 4.1873627q1.2894592 -2.2762299 1.9303894 -4.0191345q0.6564331 -1.741394 1.0421448 -2.3160553q0.30685425 -0.4096527 0.68878174 -0.62361145q0.3819275 -0.21394348 0.83291626 -0.16996765q0.6531677 0.06367493 1.1534729 0.56773376q0.5018616 0.48851013 0.43511963 1.17276q-0.09246826 0.94862366 -1.5090942 2.1135406q-1.4150696 1.149353 -3.9118347 3.7317505q2.5466003 -0.0342865 4.442688 -0.3203888q1.913147 -0.30014038 2.5196533 -0.24101257q0.7620239 0.074295044 1.2031555 0.5411835q0.45669556 0.4684143 0.37786865 1.2770691z" fill-rule="nonzero"/><path fill="#9fc5e8" d="m442.01575 338.74408l75.968506 0l0 75.968506l-75.968506 0z" fill-rule="evenodd"/><path fill="#cfe2f3" d="m442.01575 422.3399l75.968506 0l0 75.968506l-75.968506 0z" fill-rule="evenodd"/><path fill="#6fa8dc" d="m526.3202 255.1483l75.968506 0l0 75.96849l-75.968506 0z" fill-rule="evenodd"/><path fill="#9fc5e8" d="m526.3202 338.74408l75.968506 0l0 75.968506l-75.968506 0z" fill-rule="evenodd"/><path fill="#cfe2f3" d="m526.3202 422.3399l75.968506 0l0 75.968506l-75.968506 0z" fill-rule="evenodd"/></g></svg>