<svg version="1.1" viewBox="0.0 0.0 567.509186351706 567.8162729658793" fill="none" stroke="none" stroke-linecap="square" stroke-miterlimit="10" xmlns:xlink="http://www.w3.org/1999/xlink" xmlns="http://www.w3.org/2000/svg"><clipPath id="p.0"><path d="m0 0l567.5092 0l0 567.8163l-567.5092 0l0 -567.8163z" clip-rule="nonzero"/></clipPath><g clip-path="url(#p.0)"><path fill="#000000" fill-opacity="0.0" d="m0 0l567.5092 0l0 567.8163l-567.5092 0z" fill-rule="evenodd"/><g filter="url(#shadowFilter-p.1)"><use xlink:href="#p.1" transform="matrix(1.0 0.0 0.0 1.0 0.0 1.9999996796054789)"/></g><defs><filter id="shadowFilter-p.1" filterUnits="userSpaceOnUse"><feGaussianBlur in="SourceAlpha" stdDeviation="5.0" result="blur"/><feComponentTransfer in="blur" color-interpolation-filters="sRGB"><feFuncR type="linear" slope="0" intercept="0.4"/><feFuncG type="linear" slope="0" intercept="0.4"/><feFuncB type="linear" slope="0" intercept="0.4"/><feFuncA type="linear" slope="0.5" intercept="0"/></feComponentTransfer></filter></defs><g id="p.1"><path fill="#efefef" d="m8.400263 281.44882l0 0c0 -152.074 123.28034 -275.35434 275.35434 -275.35434l0 0c73.0285 0 143.06595 29.010462 194.7049 80.649414c51.638947 51.638954 80.649445 121.6764 80.649445 194.70493l0 0c0 152.074 -123.280365 275.35434 -275.35434 275.35434l0 0c-152.074 0 -275.35434 -123.280334 -275.35434 -275.35434z" fill-rule="evenodd"/></g><path fill="#9fc5e8" d="m152.76772 236.09448l75.968506 0l0 75.968506l-75.968506 0z" fill-rule="evenodd"/><path fill="#6fa8dc" d="m152.76772 173.82152l0 0c0 -20.978119 17.006134 -37.984253 37.984253 -37.984253l0 0c10.074051 0 19.735489 4.0019073 26.858917 11.125336c7.1234283 7.1234283 11.125336 16.784866 11.125336 26.858917l0 0c0 20.978134 -17.006134 37.984253 -37.984253 37.984253l0 0c-20.978119 0 -37.984253 -17.006119 -37.984253 -37.984253z" fill-rule="evenodd"/><path fill="#9fc5e8" d="m356.77298 312.063l37.984253 -75.968506l37.984222 75.968506z" fill-rule="evenodd"/><path fill="#cfe2f3" d="m353.37665 373.67453l37.984253 -37.984253l37.984253 37.984253l-37.984253 37.984253z" fill-rule="evenodd"/><path fill="#cfe2f3" d="m253.07217 377.2021l0 0c0 -20.978119 17.006134 -37.984253 37.984253 -37.984253l0 0c10.074066 0 19.735504 4.0019226 26.858917 11.125336c7.1234436 7.1234436 11.125336 16.784882 11.125336 26.858917l0 0c0 20.97815 -17.006134 37.984253 -37.984253 37.984253l0 0c-20.978119 0 -37.984253 -17.006104 -37.984253 -37.984253zm18.992126 0l0 0c0 10.489075 8.503082 18.992126 18.992126 18.992126c10.489075 0 18.992126 -8.503052 18.992126 -18.992126c0 -10.489044 -8.503052 -18.992126 -18.992126 -18.992126l0 0c-10.489044 0 -18.992126 8.503082 -18.992126 18.992126z" fill-rule="evenodd"/><path fill="#cfe2f3" d="m150.42607 356.43024l19.554047 -19.554047l20.77185 20.771881l20.77185 -20.771881l19.554047 19.554047l-20.77185 20.77185l20.77185 20.77185l-19.554047 19.554047l-20.77185 -20.77185l-20.77185 20.77185l-19.554047 -19.554047l20.77185 -20.77185z" fill-rule="evenodd"/><path fill="#a64d79" d="m300.97345 253.04414c19.961945 -42.610245 77.19751 7.3628693 -5.409424 56.716537c-71.78807 -64.07941 -6.1378174 -102.33203 5.409424 -56.716537z" fill-rule="evenodd"/><path fill="#6fa8dc" d="m256.57977 162.78749l23.442627 0l0 -23.442612l22.068054 0l0 23.442612l23.442627 0l0 22.068054l-23.442627 0l0 23.442627l-22.068054 0l0 -23.442627l-23.442627 0z" fill-rule="evenodd"/><path fill="#6fa8dc" d="m353.96982 173.82152l17.661407 -35.322815l46.251984 0l17.661407 35.322815l-17.661407 35.322815l-46.251984 0z" fill-rule="evenodd"/></g></svg>