<svg version="1.1" viewBox="0.0 0.0 567.509186351706 567.8162729658793" fill="none" stroke="none" stroke-linecap="square" stroke-miterlimit="10" xmlns:xlink="http://www.w3.org/1999/xlink" xmlns="http://www.w3.org/2000/svg"><clipPath id="p.0"><path d="m0 0l567.5092 0l0 567.8163l-567.5092 0l0 -567.8163z" clip-rule="nonzero"/></clipPath><g clip-path="url(#p.0)"><path fill="#000000" fill-opacity="0.0" d="m0 0l567.5092 0l0 567.8163l-567.5092 0z" fill-rule="evenodd"/><g filter="url(#shadowFilter-p.1)"><use xlink:href="#p.1" transform="matrix(1.0 0.0 0.0 1.0 0.0 1.9999996796054789)"/></g><defs><filter id="shadowFilter-p.1" filterUnits="userSpaceOnUse"><feGaussianBlur in="SourceAlpha" stdDeviation="5.0" result="blur"/><feComponentTransfer in="blur" color-interpolation-filters="sRGB"><feFuncR type="linear" slope="0" intercept="0.4"/><feFuncG type="linear" slope="0" intercept="0.4"/><feFuncB type="linear" slope="0" intercept="0.4"/><feFuncA type="linear" slope="0.5" intercept="0"/></feComponentTransfer></filter></defs><g id="p.1"><path fill="#efefef" d="m8.400263 281.44882l0 0c0 -152.074 123.28034 -275.35434 275.35434 -275.35434l0 0c73.0285 0 143.06595 29.010462 194.7049 80.649414c51.638947 51.638954 80.649445 121.6764 80.649445 194.70493l0 0c0 152.074 -123.280365 275.35434 -275.35434 275.35434l0 0c-152.074 0 -275.35434 -123.280334 -275.35434 -275.35434z" fill-rule="evenodd"/></g><path fill="#a64d79" d="m215.94046 118.10817l168.18896 14.173233l-14.1102295 168.8504l-168.18898 -14.173248z" fill-rule="evenodd"/><path fill="#f3f3f3" d="m303.00998 201.74881q-0.07284546 0.87194824 -0.60491943 1.2348022q-0.51519775 0.3486023 -1.2781067 0.28431702q-0.51382446 -0.043304443 -2.43396 -0.7068939q-1.9032898 -0.6778412 -4.308777 -1.162796q0.93774414 1.5373077 1.7588196 2.5943604q0.83795166 1.0428009 1.3905029 1.7479401q0.566864 0.7220154 0.8664551 1.2647247q0.31515503 0.54400635 0.26571655 1.1356964q-0.05203247 0.62283325 -0.6515808 1.0427094q-0.59957886 0.41989136 -1.2223511 0.36741638q-0.42037964 -0.03543091 -0.77453613 -0.30047607q-0.35287476 -0.2806244 -0.579834 -0.7544861q-0.3177185 -0.70103455 -0.5509033 -2.225998q-0.23318481 -1.5249634 -1.2367554 -4.5260925q-1.3526306 2.677124 -1.9407959 4.274002q-0.57125854 1.5826263 -0.94247437 2.0844727q-0.33486938 0.44218445 -0.68133545 0.64819336q-0.33093262 0.20732117 -0.81359863 0.1666565q-0.65393066 -0.055114746 -1.178009 -0.5383301q-0.50720215 -0.49746704 -0.45126343 -1.1670074q0.046844482 -0.5605469 0.41415405 -1.015686q0.3685913 -0.47071838 1.1161499 -1.1603699q0.62680054 -0.5587158 1.6793213 -1.5206146q1.0693665 -0.9761505 2.1310425 -2.235199q-2.3082886 0.04069519 -4.329895 0.4034729q-2.0060425 0.3640747 -2.6132507 0.312912q-0.7785034 -0.06561279 -1.2442017 -0.4968567q-0.45013428 -0.4299469 -0.37597656 -1.3174744q0.06637573 -0.79411316 0.5841675 -1.1738434q0.53466797 -0.3939972 1.3131714 -0.32839966q0.70062256 0.059051514 2.418396 0.70558167q1.7190552 0.6309509 4.313965 1.1005096q-0.80026245 -1.3061829 -1.7199097 -2.496994q-0.9028015 -1.2050629 -1.4151611 -1.8284149q-0.59539795 -0.75579834 -0.89627075 -1.2829285q-0.29962158 -0.5426941 -0.25146484 -1.1188049q0.053344727 -0.6383972 0.65289307 -1.0582886q0.59954834 -0.41989136 1.237915 -0.36610413q0.42037964 0.03543091 0.75897217 0.29917908q0.33859253 0.2637329 0.57980347 0.7544708q0.28012085 0.58810425 0.64556885 2.5946198q0.3822937 1.9922638 1.1408081 4.1730347q1.257843 -2.293106 1.8745728 -4.0443726q0.6322937 -1.7499542 1.0100098 -2.3296661q0.30111694 -0.41366577 0.6800537 -0.6326294q0.37890625 -0.21894836 0.83044434 -0.1809082q0.65393066 0.055114746 1.1611328 0.5525818q0.5085144 0.48190308 0.45126343 1.1670227q-0.07937622 0.94981384 -1.4796753 2.1332855q-1.3989868 1.1678925 -3.8596802 3.7830048q2.5457153 -0.067718506 4.437561 -0.3787079q1.9087219 -0.3252411 2.5159302 -0.27407837q0.76293945 0.06428528 1.2104797 0.52537537q0.46307373 0.46240234 0.39541626 1.2720795z" fill-rule="nonzero"/><path fill="#cfe2f3" d="m170.81117 222.93477l225.88976 0l0 226.77165l-225.88976 0z" fill-rule="evenodd"/><path fill="#9fc5e8" d="m396.7008 222.52725l43.968506 102.92914l19.685059 -8.283478l-43.968506 -102.92912z" fill-rule="evenodd"/><path fill="#9fc5e8" d="m170.81105 222.52725l-43.9685 102.92914l-19.685043 -8.283478l43.968513 -102.92912z" fill-rule="evenodd"/><g filter="url(#shadowFilter-p.2)"><use xlink:href="#p.2" transform="matrix(1.0 0.0 0.0 1.0 0.0 2.0)"/></g><defs><filter id="shadowFilter-p.2" filterUnits="userSpaceOnUse"><feGaussianBlur in="SourceAlpha" stdDeviation="2.0" result="blur"/><feComponentTransfer in="blur" color-interpolation-filters="sRGB"><feFuncR type="linear" slope="0" intercept="0.02745098"/><feFuncG type="linear" slope="0" intercept="0.21568628"/><feFuncB type="linear" slope="0" intercept="0.3882353"/><feFuncA type="linear" slope="0.5" intercept="0"/></feComponentTransfer></filter></defs><g id="p.2"><path fill="#9fc5e8" d="m170.81102 222.93575l225.88976 0l0 102.5197l-225.88976 0z" fill-rule="evenodd"/></g></g></svg>