<svg version="1.1" viewBox="0.0 0.0 567.509186351706 567.8162729658793" fill="none" stroke="none" stroke-linecap="square" stroke-miterlimit="10" xmlns:xlink="http://www.w3.org/1999/xlink" xmlns="http://www.w3.org/2000/svg"><clipPath id="p.0"><path d="m0 0l567.5092 0l0 567.8163l-567.5092 0l0 -567.8163z" clip-rule="nonzero"/></clipPath><g clip-path="url(#p.0)"><path fill="#000000" fill-opacity="0.0" d="m0 0l567.5092 0l0 567.8163l-567.5092 0z" fill-rule="evenodd"/><g filter="url(#shadowFilter-p.1)"><use xlink:href="#p.1" transform="matrix(1.0 0.0 0.0 1.0 0.0 1.9999996796054789)"/></g><defs><filter id="shadowFilter-p.1" filterUnits="userSpaceOnUse"><feGaussianBlur in="SourceAlpha" stdDeviation="5.0" result="blur"/><feComponentTransfer in="blur" color-interpolation-filters="sRGB"><feFuncR type="linear" slope="0" intercept="0.4"/><feFuncG type="linear" slope="0" intercept="0.4"/><feFuncB type="linear" slope="0" intercept="0.4"/><feFuncA type="linear" slope="0.5" intercept="0"/></feComponentTransfer></filter></defs><g id="p.1"><path fill="#efefef" d="m8.400263 281.44882l0 0c0 -152.074 123.28034 -275.35434 275.35434 -275.35434l0 0c73.0285 0 143.06595 29.010462 194.7049 80.649414c51.638947 51.638954 80.649445 121.6764 80.649445 194.70493l0 0c0 152.074 -123.280365 275.35434 -275.35434 275.35434l0 0c-152.074 0 -275.35434 -123.280334 -275.35434 -275.35434z" fill-rule="evenodd"/></g><path fill="#a64d79" d="m283.7533 465.0748l-128.70212 -60.388885l0 -241.55556c0 -33.351852 57.621902 -60.388885 128.70212 -60.388885c71.0802 0 128.70209 27.037033 128.70209 60.388885l0 241.55556z" fill-rule="evenodd"/><path fill="#6fa8dc" d="m194.09868 190.01422l55.685043 0l0 55.685043l-55.685043 0z" fill-rule="evenodd"/><path fill="#9fc5e8" d="m194.09868 251.30154l55.685043 0l0 55.685028l-55.685043 0z" fill-rule="evenodd"/><path fill="#cfe2f3" d="m194.09868 312.58887l55.685043 0l0 55.685028l-55.685043 0z" fill-rule="evenodd"/><path fill="#6fa8dc" d="m255.90562 190.01422l55.685043 0l0 55.685043l-55.685043 0z" fill-rule="evenodd"/><path fill="#9fc5e8" d="m255.90562 251.30154l55.685043 0l0 55.685028l-55.685043 0z" fill-rule="evenodd"/><path fill="#cfe2f3" d="m255.90562 312.58887l55.685043 0l0 55.685028l-55.685043 0z" fill-rule="evenodd"/><path fill="#6fa8dc" d="m317.71255 190.01422l55.68506 0l0 55.685043l-55.68506 0z" fill-rule="evenodd"/><path fill="#9fc5e8" d="m317.71255 251.30154l55.68506 0l0 55.685028l-55.68506 0z" fill-rule="evenodd"/><path fill="#cfe2f3" d="m317.71255 312.58887l55.68506 0l0 55.685028l-55.68506 0z" fill-rule="evenodd"/></g></svg>