<svg version="1.1" viewBox="0.0 0.0 960.0 720.0" fill="none" stroke="none" stroke-linecap="square" stroke-miterlimit="10" xmlns:xlink="http://www.w3.org/1999/xlink" xmlns="http://www.w3.org/2000/svg"><clipPath id="p.0"><path d="m0 0l960.0 0l0 720.0l-960.0 0l0 -720.0z" clip-rule="nonzero"/></clipPath><g clip-path="url(#p.0)"><path fill="#000000" fill-opacity="0.0" d="m0 0l960.0 0l0 720.0l-960.0 0z" fill-rule="evenodd"/><path fill="#000000" fill-opacity="0.0" d="m469.05066 449.26236c57.86792 0 87.6413 -0.85824585 115.73578 -1.7165222c28.094482 -0.85827637 54.51007 -1.7165527 109.02014 -1.7165527" fill-rule="evenodd"/><path stroke="#9fc5e8" stroke-width="4.0" stroke-linejoin="round" stroke-linecap="butt" d="m469.05066 449.2624c57.86792 0 87.6413 -0.85827637 115.73578 -1.7165527c14.047241 -0.42910767 27.674744 -0.85824585 44.604248 -1.1801147c8.464722 -0.16091919 17.754944 -0.29501343 28.335876 -0.3888855c2.6452026 -0.023468018 5.371155 -0.044433594 8.184937 -0.062683105l3.8952026 -0.022949219" fill-rule="evenodd"/><path fill="#9fc5e8" stroke="#9fc5e8" stroke-width="4.0" stroke-linecap="butt" d="m669.8237 452.4981l18.135254 -6.653717l-18.169373 -6.560089z" fill-rule="evenodd"/><path fill="#000000" fill-opacity="0.0" d="m641.1854 271.05496c23.476562 0 69.814514 23.584717 46.953186 41.28418c-22.861328 17.699463 -114.922 29.513672 -207.40302 41.28418c-92.48105 11.770538 -185.3825 23.497406 -207.40305 41.109528c-22.020538 17.612122 26.839813 41.109497 53.679626 41.109497" fill-rule="evenodd"/><path stroke="#9fc5e8" stroke-width="4.0" stroke-linejoin="round" stroke-linecap="butt" d="m641.1854 271.05496c23.476562 0 69.814514 23.584717 46.953186 41.28418c-22.861328 17.699463 -114.922 29.513672 -207.40302 41.28418c-92.48105 11.770538 -185.3825 23.497406 -207.40305 41.109528c-22.020538 17.612122 26.839813 41.109497 53.679626 41.109497" fill-rule="evenodd"/><path fill="#000000" fill-opacity="0.0" d="m270.50824 271.05496l370.6772 0" fill-rule="evenodd"/><path stroke="#9fc5e8" stroke-width="4.0" stroke-linejoin="round" stroke-linecap="butt" d="m285.66827 271.05496l355.51715 0" fill-rule="evenodd"/><path fill="#9fc5e8" stroke="#9fc5e8" stroke-width="4.0" stroke-linecap="butt" d="m272.50827 271.05496c0 -3.6340332 2.9459534 -6.580017 6.5799866 -6.580017c3.6340332 0 6.580017 2.945984 6.580017 6.580017c0 3.6340332 -2.945984 6.5799866 -6.580017 6.5799866c-3.6340332 0 -6.5799866 -2.9459534 -6.5799866 -6.5799866z" fill-rule="nonzero"/><path fill="#cfe2f3" d="m326.6689 199.71637l142.67715 0l0 142.67719l-142.67715 0z" fill-rule="evenodd"/><path fill="#a64d79" d="m333.71207 364.8214l142.04724 13.417328l-13.417328 142.04727l-142.04724 -13.417358z" fill-rule="evenodd"/><path fill="#f3f3f3" d="m411.917 432.91342q-0.13223267 1.4000244 -0.9858093 1.9628601q-0.85357666 0.5628662 -2.0669556 0.4482422q-0.777771 -0.07345581 -3.155365 -0.98861694q-2.3776245 -0.9151306 -5.0830994 -1.5159607q1.5811157 2.534912 3.5620422 4.8251038q1.980896 2.2901917 1.842804 3.752411q-0.09698486 1.0267029 -1.071228 1.7037048q-0.97421265 0.67700195 -1.9697876 0.5829773q-0.68444824 -0.06466675 -1.2388306 -0.5093994q-0.55441284 -0.44473267 -0.9223633 -1.201416q-0.3086853 -0.71972656 -0.71725464 -3.206665q-0.40856934 -2.4869385 -1.2254028 -5.1380005q-1.2558899 2.329712 -2.1828003 4.8317566q-0.9268799 2.5020447 -1.2879639 3.0015564q-0.571228 0.7307739 -1.1183777 1.0400696q-0.54711914 0.30929565 -1.3249207 0.23583984q-1.0266724 -0.09698486 -1.8442993 -0.91186523q-0.81762695 -0.8148804 -0.7147522 -1.9037781q0.13812256 -1.4622498 2.5128174 -3.3410034q2.3746948 -1.8787537 4.4024963 -4.0727844q-2.6427612 0.06427002 -5.2289124 0.5262451q-2.5861511 0.4619751 -3.3328247 0.39144897q-1.2133484 -0.11462402 -1.9464417 -0.82733154q-0.7331238 -0.71273804 -0.6008606 -2.1127625q0.1204834 -1.2755737 0.97994995 -1.9006348q0.85946655 -0.62506104 2.072815 -0.5104675q0.964447 0.09109497 3.0353394 0.9301758q2.0708923 0.8391113 5.209015 1.5121765q-1.8065186 -2.807312 -3.6732788 -4.976837q-1.8667297 -2.1695557 -1.7315674 -3.6006775q0.09698486 -1.0266724 1.0711975 -1.7037048q0.97424316 -0.67700195 1.9698181 -0.5829468q0.7155762 0.06756592 1.2558594 0.49526978q0.5403137 0.42770386 0.90826416 1.1844177q0.3086853 0.71972656 0.7298889 3.2392578q0.4211731 2.5195007 1.2098083 5.1365356q1.2676697 -2.454193 2.1687317 -4.848816q0.9010315 -2.3946228 1.3049927 -3.015625q0.43502808 -0.618103 1.0799255 -0.9652405q0.64486694 -0.34713745 1.3604431 -0.27954102q1.0266724 0.096954346 1.8442993 0.9118347q0.81759644 0.8148804 0.7147522 1.9037781q-0.13516235 1.4311218 -2.260376 3.1608276q-2.125183 1.7296753 -4.6238403 4.2559204q3.149353 -0.1105957 5.432617 -0.5227051q2.2832336 -0.41210938 3.0921326 -0.33569336q1.2133484 0.114593506 1.9405823 0.8895569q0.7272339 0.77493286 0.60672 2.0505066z" fill-rule="nonzero"/><path fill="#cfe2f3" d="m498.50824 199.71637l142.67719 0l0 142.67719l-142.67719 0z" fill-rule="evenodd"/><path fill="#cfe2f3" d="m498.50824 371.2104l142.67719 0l0 142.67719l-142.67719 0z" fill-rule="evenodd"/><path fill="#6fa8dc" d="m265.6942 271.06863l0 0c0 -8.79306 7.1282043 -15.921249 15.921265 -15.921249l0 0c4.222595 0 8.272217 1.677414 11.258026 4.6632233c2.9858398 2.9858398 4.6632385 7.0354614 4.6632385 11.258026l0 0c0 8.793091 -7.128174 15.921265 -15.921265 15.921265l0 0c-8.79306 0 -15.921265 -7.128174 -15.921265 -15.921265z" fill-rule="evenodd"/></g></svg>