<svg version="1.1" viewBox="0.0 0.0 567.509186351706 567.8162729658793" fill="none" stroke="none" stroke-linecap="square" stroke-miterlimit="10" xmlns:xlink="http://www.w3.org/1999/xlink" xmlns="http://www.w3.org/2000/svg"><clipPath id="p.0"><path d="m0 0l567.5092 0l0 567.8163l-567.5092 0l0 -567.8163z" clip-rule="nonzero"/></clipPath><g clip-path="url(#p.0)"><path fill="#000000" fill-opacity="0.0" d="m0 0l567.5092 0l0 567.8163l-567.5092 0z" fill-rule="evenodd"/><g filter="url(#shadowFilter-p.1)"><use xlink:href="#p.1" transform="matrix(1.0 0.0 0.0 1.0 0.0 1.9999996796054789)"/></g><defs><filter id="shadowFilter-p.1" filterUnits="userSpaceOnUse"><feGaussianBlur in="SourceAlpha" stdDeviation="5.0" result="blur"/><feComponentTransfer in="blur" color-interpolation-filters="sRGB"><feFuncR type="linear" slope="0" intercept="0.4"/><feFuncG type="linear" slope="0" intercept="0.4"/><feFuncB type="linear" slope="0" intercept="0.4"/><feFuncA type="linear" slope="0.5" intercept="0"/></feComponentTransfer></filter></defs><g id="p.1"><path fill="#efefef" d="m8.398951 281.44882l0 0c0 -152.074 123.28034 -275.35434 275.35434 -275.35434l0 0c73.0285 0 143.06595 29.010462 194.7049 80.649414c51.638977 51.638954 80.649414 121.6764 80.649414 194.70493l0 0c0 152.074 -123.280334 275.35434 -275.3543 275.35434l0 0c-152.074 0 -275.35434 -123.280334 -275.35434 -275.35434z" fill-rule="evenodd"/></g><path fill="#cfe2f3" d="m132.64961 261.01706l0 -68.34645c0 -37.746704 30.599747 -68.34646 68.34645 -68.34646l48.818893 0l0 -19.527565l39.05513 39.055115l-39.05513 39.05513l0 -19.527557l-48.818893 0l0 0c-16.177155 0 -29.291336 13.114166 -29.291336 29.291336l0 68.34645z" fill-rule="evenodd"/><path fill="#a64d79" d="m300.9908 123.01181l68.346466 0c37.746704 0 68.346436 30.599747 68.346436 68.34645l0 48.81891l19.527557 0l-39.055115 39.0551l-39.055115 -39.0551l19.527557 0l0 -48.81891l0 0c0 -16.177155 -13.114166 -29.291336 -29.29132 -29.291336l-68.346466 0z" fill-rule="evenodd"/><path fill="#9fc5e8" d="m437.75592 301.88058l0 68.346436c0 37.746735 -30.599762 68.346466 -68.346466 68.346466l-48.81891 0l0 19.527557l-39.055115 -39.055115l39.055115 -39.055115l0 19.527557l48.81891 0l0 0c16.177155 0 29.29132 -13.114166 29.29132 -29.291351l0 -68.346436z" fill-rule="evenodd"/><path fill="#6fa8dc" d="m266.51443 435.45276l-68.34645 0c-37.746704 0 -68.346466 -30.599762 -68.346466 -68.346466l0 -48.81888l-19.527557 0l39.055115 -39.055145l39.05513 39.055145l-19.527557 0l0 48.81888l0 0c0 16.177155 13.114166 29.291351 29.291336 29.291351l68.34645 0z" fill-rule="evenodd"/></g></svg>